<svg xmlns="http://www.w3.org/2000/svg" width="363.114" height="481.917" viewBox="0 0 363.114 481.917">
  <g id="Layer_1" transform="translate(-139.403 -114.404)">
    <path id="Path_2251" data-name="Path 2251" d="M369.771,304.607l-2.238,29.557c11.24-.989,22.376-2.394,33.408-4.111q17.641-2.732,35.177-6.817l3.226-.729,5,53.13c8.638,7.91,15.039,18.681,18.838,30.39a8.32,8.32,0,0,1,3.07,1.665,7,7,0,0,1,2.134,3.07,8.239,8.239,0,0,1,.416,3.591,12.96,12.96,0,0,1-3.226,6.869l-.156.156-.156.156c-.989.885-1.977,1.717-2.966,2.55-1.145,9.783-.624,18.838,1.353,26.279,1.925,7.181,5.152,12.749,9.627,15.715l-.156.26h.1c7.025,1.249,16.912,9.263,23.157,20.659,4.735,8.69,7.493,19.41,5.464,30.7-2.082,11.5-8.794,21.648-16.652,29.141-8.638,8.222-18.838,13.374-25.915,13.738-5.1,45.949-37.415,61.4-71.6,77.8-23,11.032-46.938,22.48-63.173,44.128l-2.342,3.122-2.342-3.122c-16.236-21.7-40.173-33.148-63.173-44.128-34.241-16.392-66.556-31.847-71.6-77.848-7.077.781-18.681-4.527-28.308-13.686-7.858-7.493-14.57-17.589-16.652-29.141-2.029-11.292.729-22.012,5.464-30.7,6.245-11.4,16.132-19.41,23.157-20.659h.156l-.156-.26c4.423-2.966,7.7-8.534,9.627-15.715,1.977-7.441,2.446-16.5,1.3-26.279-.989-.833-1.977-1.665-2.966-2.55l-.156-.156-.156-.156a12.96,12.96,0,0,1-3.226-6.869,8.239,8.239,0,0,1,.416-3.591,7,7,0,0,1,2.134-3.07,8.319,8.319,0,0,1,3.07-1.665c3.851-11.865,10.355-22.792,19.2-30.7l2.186-1.873,4.787-50.893,3.226.729q17.8,4.137,35.7,6.921,16.158,2.5,32.732,4.007l-2.238-29.557,4.007-4.059h87.631Z" transform="translate(0 -89.305)" fill-rule="evenodd"/>
    <path id="Path_2252" data-name="Path 2252" d="M415.9,511.008a14.772,14.772,0,0,1-7.6-4.007h0a14.514,14.514,0,0,1-4.267-10.3c0-1.249-1.613-4.579-2.966-4.735-12.853-1.3-28.881-10.2-43.4-19.462-5.516,5.464-9.471,12.957-12.125,21.127-7.129,21.856-8.534,31.951,9.523,46.469,14.935,12.021,29.037,11.6,38.664,10.147C408.359,547.9,415.02,536.038,415.9,511.008Z" transform="translate(-96.506 -171.752)" fill="#58595b" fill-rule="evenodd"/>
    <path id="Path_2253" data-name="Path 2253" d="M415.216,518.542a19.362,19.362,0,0,1-5.776-4.059h0c-10.72-10.72-44.648-40.589-53.6-15.559-6.14,18.786-8.742,27.216,7.7,40.485,10.46,8.43,21.231,10.98,34.345,8.95-15.247-4.579-28.881-12.489-37.831-28.673C374.835,535.194,412.354,563.294,415.216,518.542Z" transform="translate(-101.541 -179.755)" fill="#fff" fill-rule="evenodd"/>
    <path id="Path_2254" data-name="Path 2254" d="M484.7,649.114c.729-2.55,1.561-5.36,2.5-8.326,3.643-11.76,8.222-26.487,7.077-39.288-16.7,16.444-34.085,16.236-55.732,20.034l7.233,2.029c17.537-2.758,32.211-4.423,46.365-18.786,1.145,12.8-3.33,27.58-6.869,39.288a21.7,21.7,0,0,0-.572,5.048ZM351.8,602.072a34.961,34.961,0,0,0,2.238,10.616,45.154,45.154,0,0,1,1.977,7.389,281.893,281.893,0,0,0,29.3-2.5l-7.7-1.2c-7.7-1.249-14.622-4.839-20.867-9.835C355.078,605.091,353.413,603.634,351.8,602.072Z" transform="translate(-101.871 -233.624)" fill="#58595b" fill-rule="evenodd"/>
    <path id="Path_2255" data-name="Path 2255" d="M307.8,537.741c-20.295,5.1-38.143,5.776-55.42,6.453-17.849.676-35.125,1.3-53.807,6.921-8.742,9.939-11.812,19.462-11.136,29.349,3.591,26.123,40.017,25.29,70.615,11.084,10.876-5.048,21.7-10.043,32.784-14,13.894-5.932,17.328-13.374,16.964-39.809Zm-46.365-88.568c-10.1-6.661-19.046-13.009-25.186-16.5l-3.487-1.977a42.641,42.641,0,0,0-25.707,11.292c-8.43,7.6-14.57,18.213-18.057,29.713l-.572,1.873-1.925.208a3.149,3.149,0,0,0-1.873.676,1.476,1.476,0,0,0-.416.572,2.223,2.223,0,0,0-.1,1.041,6.915,6.915,0,0,0,1.717,3.539c9.263,8.066,17.537,14.05,26.851,17.849,18.109,5.412,28.2-1.769,36.01-25.759,2.862-8.482,6.973-16.444,12.749-22.532ZM245.1,508.5c15.455,20.4-37.571,34.917-49.8,37.519-10.668,9.939-10.824-1.2-12.645-11.136a9.959,9.959,0,0,0-1.925-4.683c3.851-3.9,6.661-9.471,8.43-16.08,4.163-16.288,8.118-15.767,21.387-11.292,9.731,4.059,20.555,5.932,34.553,5.672ZM176.93,535.92c.416,2.394.156,6.3-.156,11.032-.52,7.806-1.2,17.745.781,28.516,1.925,10.564,7.077,19.514,9.211,27.424,1.873,6.713-10.043,12.385-20.867,2.029-7.077-6.765-13.113-15.767-14.935-25.915-1.769-9.835.676-19.254,4.839-26.9,5.412-9.887,13.53-16.756,19.1-17.745C176.149,534.15,176.722,534.723,176.93,535.92Z" transform="translate(-5.265 -151.704)" fill="#58595b" fill-rule="evenodd"/>
    <path id="Path_2256" data-name="Path 2256" d="M307.452,539.29c-16.6,3.487-32.627,4.371-49.748,5.048-17.433.624-33.98,1.405-50.893,6.245,14.05-1.613,24.406-2.342,35.177-1.249-18.057,1.873-46,4.944-43.92,25.186a16.619,16.619,0,0,0,4.319,9.367c5.724,5.932,15.819,6.921,23.573,6.557,11.813-.52,24.249-4.267,34.917-9.211-22.428,5.724-33.72,7.337-52.558,1.457,15.143,1.093,82.792-8.222,94.032-21.075,4.215-4.787,5-14.466,5.1-22.324ZM238.607,432.145,236.63,431a37.584,37.584,0,0,0-20.815,9.731c-7.91,7.129-13.426,17.068-16.444,27.216l-1.509,5c6.661,5.568,13.79,10.668,21.8,14,4.423,1.3,9.679,2.186,14.1.364,7.962-3.226,12.437-15.195,14.883-22.636,4.735-14.466,7.129-22.844-10.043-32.523ZM192.45,525.6a17.651,17.651,0,0,1,.729,2.966c.26,1.561.937,6.713,1.717,9.575.729-9.107,8.014-13.165,11.292-31.222,1.613,10.512-6.973,21.856-6.973,28.412a163.226,163.226,0,0,0,27.059-8.482c5.36-2.238,20.295-9.055,21.127-15.715a4.654,4.654,0,0,0-.364-2.394c-11.5-.052-22.636-1.613-33.408-5.984-1.873-.624-8.43-2.914-9.991-2.238-1.717.729-3.695,8.17-4.111,9.731A42.556,42.556,0,0,1,192.45,525.6ZM176.734,536.48c-4.527,3.226-9,9.419-10.928,12.957a35.284,35.284,0,0,0-4.267,23.261c1.613,8.794,6.921,16.808,13.322,22.948,2.29,2.186,5.412,4.163,8.69,4.163.676,0,2.5-.26,3.018-.937-1.145-4.059-2.966-8.066-4.475-11.969a83.658,83.658,0,0,1-4.839-15.767c-1.821-10.147-1.509-19.67-.833-29.87C176.474,539.966,176.63,538.2,176.734,536.48Z" transform="translate(-10.377 -151.848)" fill="#fff" fill-rule="evenodd"/>
    <path id="Path_2257" data-name="Path 2257" d="M463.8,636.4c-.52,16.756-1.145,32.627,11.76,33.72l30.078,2.55,19.046,9.055,4.839,12.905,3.747,2.029-1.665-17.328-18.369-22.324,23.937,19.41.833,8.43.937-9.263L518.18,651.543Z" transform="translate(-155.486 -250.363)" fill="#58595b" fill-rule="evenodd"/>
    <path id="Path_2258" data-name="Path 2258" d="M474.185,641.8c-.1,7.285.208,16.808,3.487,19.774a5.506,5.506,0,0,0,3.435,1.3l31.066,2.6,12.177,5.776-13.478-16.392,2.186-2.238Z" transform="translate(-160.562 -252.953)" fill="#fff" fill-rule="evenodd"/>
    <path id="Path_2259" data-name="Path 2259" d="M539.808,721.055l-11.656,5.256,2.862,8.222,9.419,1.041L530.6,741.4l-.468,8.326,8.378-.312-8.69,6.14-.52,8.742,9.211-3.591L528.1,773.4l12.333-9.107,3.591-42.931-8.95-4.267Z" transform="translate(-186.429 -289.069)" fill="#58595b" fill-rule="evenodd"/>
    <path id="Path_2260" data-name="Path 2260" d="M449.919,787.584l27.424-.1,3.539-7.858-3.695-1.613,3.955-2.238.624-10.1-4.267-2.03,4.631-3.226.572-9-3.278-2.81,3.695-3.8-2.966-7.545-38.143-.364-1.509,4.944,4.475,5.724,28.621,1.561-27.424,2.966-3.695,5.568,5.308,4.527,24.77,1.405-24.718,2.082-3.695,5.932,5.36,5.256,24.145,1.249-24.145,2.03-3.122,4.319Z" transform="translate(-144.414 -298.565)" fill="#58595b" fill-rule="evenodd"/>
    <path id="Path_2261" data-name="Path 2261" d="M460.6,781.715l21.543,1.145.729-1.249-3.382-1.353-18.89,1.457Zm19.826-10.1,1.2-.677.312-4.735-1.405-.677-25.394,2.134-.676,1.093,1.613,1.613,24.354,1.249Zm.26-14.466,1.873-1.3.312-4.683-.26-.208-29.193,3.122-.364.572L454.3,755.7l26.383,1.457Zm-1.093-12.385,3.122-3.122-.833-2.134L450.4,739.2l3.591,4.111Z" transform="translate(-149.162 -299.668)" fill="#fff" fill-rule="evenodd"/>
    <path id="Path_2262" data-name="Path 2262" d="M643.546,534.55c-1.2-.208-1.769.364-1.977,1.561a14.978,14.978,0,0,0-.208,2.862h0c5.568.989,13.686,7.858,19.1,17.745,4.163,7.65,6.609,17.068,4.839,26.9a34.869,34.869,0,0,1-2.133,7.181,34.811,34.811,0,0,0,4.319-11.6c1.769-9.835-.676-19.254-4.839-26.9-5.412-9.887-13.53-16.7-19.1-17.745ZM531.717,625.876c37.363-15.195,55.836,3.33,80.5-1.925-13.842,10.407-41.63-8.274-80.5,1.925ZM587.761,431.1l-3.174,1.769c-6.453,3.643-15.975,10.46-26.643,17.433,8.534-1.821,19.618-10.3,24.458-13.061l3.122-1.769a43.224,43.224,0,0,1,23.729,11.084c8.43,7.6,14.57,18.213,18.057,29.713l.572,1.873,1.925.208a3.148,3.148,0,0,1,1.873.676,1.476,1.476,0,0,1,.416.572,1.87,1.87,0,0,1,.1.572l.468-.416a6.915,6.915,0,0,0,1.717-3.539,2.224,2.224,0,0,0-.1-1.041,1.476,1.476,0,0,0-.416-.572,3.93,3.93,0,0,0-1.873-.676l-1.925-.208-.572-1.873c-3.434-11.5-9.627-22.168-18.057-29.713A43.555,43.555,0,0,0,587.761,431.1ZM553,453.528c10.772,11.448,21.283,41.266,12.489,55.264,4.892-13.009-5.2-40.745-14.727-50.841,3.9,9.575,8.534,22.116,7.181,30.91-2.186-12.541-8.794-29.505-16.132-25.446-11.552,6.453-23.157,12.125-32.94,13.113a1.339,1.339,0,0,0-.781.364v-.052c0-1.249,1.613-4.631,2.966-4.735,12.437-1.249,27.84-9.627,41.942-18.577Zm-47.718,31.9a15.169,15.169,0,0,1-1.457,1.665h0A14.482,14.482,0,0,1,496.8,491c.052,1.249.052,2.5.1,3.643a14.576,14.576,0,0,0,4.735-3.174h0a14.278,14.278,0,0,0,3.643-6.036ZM633.4,541.784c.729-.052,1.457-.1,2.186-.1a32.136,32.136,0,0,1,.26-6.557,9.959,9.959,0,0,1,1.925-4.683c-3.851-3.9-6.661-9.471-8.43-16.08-5.308-21.544-8.742-15.767-21.387-11.292-9.783,4.007-20.607,5.88-34.553,5.62,10.407,3.382,28.725.26,32.367-1.249,12.645-4.475,16.08-10.251,21.387,11.292,1.769,6.609,4.579,12.177,8.43,16.08a9.271,9.271,0,0,0-1.977,4.683,15.6,15.6,0,0,0-.208,2.29Zm1.821,32.888c1.821-9.991,1.2-19.618.677-27.112v-.052c-13.738.312-28.412,10.1-43.451,20.139-10.668,7.077-21.491,14.31-32.68,18.733,10.98-1.093,25.811-11.24,30.494-14.31,15.039-10.043,29.713-19.826,43.451-20.138v.052c.468,7.493,1.145,17.12-.677,27.112a106.412,106.412,0,0,1-5.724,16.34A96.236,96.236,0,0,0,635.22,574.671Z" transform="translate(-171.417 -151.896)" fill="#58595b" fill-rule="evenodd"/>
    <path id="Path_2263" data-name="Path 2263" d="M421.97,859.075h.312c6.609-.312,13.322-.468,20.034-.468,6.869,0,13.79.156,20.555.52h.52c10.616.52,20.971,1.457,30.442,2.862L490.5,854.6H394.13l-3.33,7.389C400.531,860.584,411.095,859.6,421.97,859.075Z" transform="translate(-120.576 -355.017)" fill="#fff" fill-rule="evenodd"/>
    <path id="Path_2264" data-name="Path 2264" d="M493.5,929.128c3.747-3.955,8.95-7.545,13.322-10.772v-44.6c-3.9-.156-7.806-.208-11.708-.26Z" transform="translate(-169.834 -364.082)" fill="#58595b" fill-rule="evenodd"/>
    <path id="Path_2265" data-name="Path 2265" d="M461.9,918.252c4.215,3.122,9.263,6.557,12.853,10.355l-.624-55.108c-4.111,0-8.17.1-12.229.26Z" transform="translate(-154.678 -364.082)" fill="#fff" fill-rule="evenodd"/>
    <path id="Path_2266" data-name="Path 2266" d="M487.529,719.392c-.052-4.892-18.786-5.308-18.629.156Z" transform="translate(-158.034 -288.343)" fill-rule="evenodd"/>
    <path id="Path_2267" data-name="Path 2267" d="M414.211,366.807l-.624,8.118c9-.937,18.057-2.238,27.112-3.8,10.668-1.821,21.335-4.111,31.9-6.817l3.33-.833,2.6,30.13a46.8,46.8,0,0,1,6.661,3.8L481.339,356.4c-10.668,2.394-21.491,4.423-32.367,6.14-11.656,1.821-23.209,3.278-34.761,4.267Zm77.224,222.668C487.948,625.069,458.6,638.7,427.9,652.909c-21.075,9.783-42.775,19.826-56.357,37.571l-2.29,3.018-2.29-3.018c-13.634-17.953-35.437-28.048-56.617-37.779-32.575-15.039-63.8-29.505-65.1-70.667-1.821.312-3.643.625-5.464.885l-1.2.156a6.071,6.071,0,0,1-.885,1.613c4.007,44.284,35.333,59.323,68.533,75.194,22.584,10.824,46.053,22.012,63.017,42.931,16.964-20.919,40.381-32.107,63.017-42.931,32.628-15.611,63.434-30.39,68.325-72.957-2.966.937-5.984,1.821-9.159,2.55ZM324.707,374.925l-.624-8.118c-11.292-.989-22.688-2.394-34.032-4.163-11.084-1.717-22.012-3.8-32.888-6.245l-3.695,39.392a52.031,52.031,0,0,1,6.609-3.278l2.5-29.037,3.33.833c10.72,2.758,21.544,5.048,32.367,6.869C307.066,372.74,315.912,373.989,324.707,374.925Z" transform="translate(-47.146 -116.068)" fill="#58595b" fill-rule="evenodd"/>
    <path id="Path_2268" data-name="Path 2268" d="M443.968,387.97V343.426c-13.217-1.665-20.815-15.455-33.668-19.826l3.33,43.555Z" transform="translate(-129.929 -100.336)" fill="#fff"/>
    <path id="Path_2269" data-name="Path 2269" d="M404.9,457.644l-31.795-27.736-7.65.156c7.65,6.245,31.275,26.643,39.444,27.58Zm-3.747,1.717c-17.849,11.5-63.642-26.9-80.554-36.478,5.828-4.059,7.441-3.278,15.507,1.457l50.841,29.922-44.232-30.286c3.591-2.186,6.088-.676,11.24,2.862l47.2,32.523Zm96.217-36.478c-5.828-4.059-7.441-3.278-15.507,1.457l-50.841,29.922,44.232-30.286c-3.591-2.186-6.088-.676-11.24,2.862l-47.146,32.471c17.849,11.5,63.59-26.851,80.5-36.426Zm-44.8,7.233c-7.7,6.245-31.327,26.591-39.5,27.528l31.847-27.736Z" transform="translate(-86.907 -146.697)" fill="#045a59"/>
    <path id="Path_2270" data-name="Path 2270" d="M400.705,457.527l-45.169-30.442c-1.873-1.3-3.591-2.654-5.828-3.018l40.745,30.91-52.766-30.39c-5.308-3.07-6.869-5.1-11.188-2.862C342.684,431.873,383.221,463.407,400.705,457.527Z" transform="translate(-89.736 -146.944)" fill="#63826d" fill-rule="evenodd"/>
    <path id="Path_2271" data-name="Path 2271" d="M419.6,428.6l36.895,31.118L493.389,428.6l-36.895,20.815Z" transform="translate(-134.39 -150.697)" fill="#58595b"/>
    <path id="Path_2272" data-name="Path 2272" d="M424.015,184.6l3.591-2.186,2.914,4.527c3.539,5.464,3.33,15.871,3.33,22.376v10.1l-4.111,1.093a157.28,157.28,0,0,1-39.7,5.308h-.416a157.28,157.28,0,0,1-39.7-5.308l-4.111-1.093v-10.1c0-2.55-.052-5.672.156-8.9-6.713-1.561-12.905,4.007-20.086,10.46-9.263,8.326-19.982,17.953-36.218,17.953H280.6l7.389-5.256c13.478-9.627,14.05-22.949,14.57-35.333.52-13.27,1.041-25.6,14.779-33.3a19,19,0,0,1,2.6-6.3,23.616,23.616,0,0,1,9.055-7.962,22.312,22.312,0,0,1,12.177-2.394,19.526,19.526,0,0,1,5.152,1.2c4.267-13.894,16.184-22.116,29.505-24.406a46.846,46.846,0,0,1,20.086.937,41.19,41.19,0,0,1,17.693,9.887c10.668,10.407,15.715,27.684,7.129,51.985h-.052A40.348,40.348,0,0,1,424.015,184.6Z" transform="translate(-67.722 0)" fill-rule="evenodd"/>
    <path id="Path_2273" data-name="Path 2273" d="M445.643,339.5c-14.362-2.342-21.075-15.871-31.743-19.2,10.668,2.654,17.172,14.623,31.743,16.392Z" transform="translate(-131.656 -98.753)" fill="#fff"/>
    <path id="Path_2274" data-name="Path 2274" d="M505.7,386.179l2.862-47.3C521,335.339,527.5,323.422,537.443,320.3c-10.668,2.654-17.172,14.623-31.743,16.392Z" transform="translate(-175.685 -98.753)" fill="#58595b"/>
    <path id="Path_2275" data-name="Path 2275" d="M362.883,199.9a19.007,19.007,0,0,1,2.6-7.6l2.914-4.527,3.591,2.186a32.151,32.151,0,0,1,9.471-13.374c15.039-12.853,34.449-12.905,49.54,0a21.443,21.443,0,0,1,1.613,1.457c6.14-19.982,1.925-34.085-6.765-42.567a35.039,35.039,0,0,0-15.143-8.482,40.94,40.94,0,0,0-17.589-.833c-12.229,2.134-22.48,9.575-25.29,21.6,4.475,2.446,7.858,7.493,8.95,13.009-6.3-6.557-17.641-15.195-28.881-9.523a17.618,17.618,0,0,0-6.817,5.932,7.013,7.013,0,0,0-1.665,3.955,26.64,26.64,0,0,1,12.229,1.041c-22.168,4.111-26.071,6.921-27.059,31.691-.468,11.292-.937,23.209-9.783,33.356,9.471-2.706,16.86-9.315,23.417-15.247C346.543,204.478,353.724,198.026,362.883,199.9Z" transform="translate(-84.125 -5.36)" fill="#644c3d" fill-rule="evenodd"/>
    <path id="Path_2276" data-name="Path 2276" d="M380.1,171.679l-1.509,10.1a35.635,35.635,0,0,1,8.794-11.136c13.27-11.292,29.505-12.957,44.232-6.4,9.731,4.371,10.928-19.774,0-29.869a33.214,33.214,0,0,0-13.738-7.65,37.522,37.522,0,0,0-16.132-.729c-9.887,1.717-18.733,7.337-22.012,16.912,6.817,5.2,9.627,15.767,8.222,23-4.527-8.014-22.324-23.261-34.969-11.76,6.453.416,15.559,2.134,21.283,7.65-8.534.156-39.965-1.4-38.3,28.777a55.368,55.368,0,0,1-4.371,25.6C347.784,191.61,367.142,197.7,380.1,171.679Z" transform="translate(-92.182 -5.292)" fill="#debe94" fill-rule="evenodd"/>
    <path id="Path_2277" data-name="Path 2277" d="M416.4,264.686a152.536,152.536,0,0,0,38.768,5.152l-.208-52.037c-4.267,9.419-24.51,28.777-36.114,21.7-2.55,4.007-2.446,13.686-2.446,19.358Z" transform="translate(-132.854 -49.592)" fill="#fff"/>
    <path id="Path_2278" data-name="Path 2278" d="M435.9,235.1c7.65-1.457,18.213-11.448,22.272-17.8a40.944,40.944,0,0,0-14.831,7.6A27.082,27.082,0,0,0,435.9,235.1Z" transform="translate(-142.207 -49.352)" fill="#fff" fill-rule="evenodd"/>
    <path id="Path_2279" data-name="Path 2279" d="M455.668,228.3c-6.192,9.159-22.844,22.949-33.668,17.537,8.118,5.568,22.22.676,33.72-13.634Z" transform="translate(-135.541 -54.628)"/>
    <path id="Path_2280" data-name="Path 2280" d="M495.052,228.3c6.193,9.159,22.844,22.949,33.668,17.537C520.6,251.4,506.5,246.513,495,232.2Z" transform="translate(-170.553 -54.628)" fill="#58595b"/>
    <path id="Path_2281" data-name="Path 2281" d="M488.635,504.75a8.726,8.726,0,0,0-6.192-2.55,8.913,8.913,0,0,0-6.192,2.55h0a8.794,8.794,0,0,0,0,12.385h0a8.794,8.794,0,0,0,12.385,0h0a8.794,8.794,0,0,0,0-12.385Z" transform="translate(-160.337 -185.997)" fill="#debe94"/>
    <path id="Path_2282" data-name="Path 2282" d="M484.073,504.1c-3.851,0-6.973,3.435-6.973,4.267,0,.885,3.122-1.145,6.973-1.145s6.973,1.977,6.973,1.145C491.046,507.482,487.924,504.1,484.073,504.1Z" transform="translate(-161.968 -186.908)" fill="#fff"/>
    <path id="Path_2283" data-name="Path 2283" d="M351.342,728.7c-19.306,3.435-59.635,26.643-86.642,28.36C285.255,761.38,325.9,738.327,351.342,728.7Z" transform="translate(-60.096 -294.632)" fill="#58595b" fill-rule="evenodd"/>
  </g>
</svg>
