<svg xmlns="http://www.w3.org/2000/svg" width="258.072" height="41.292" viewBox="0 0 258.072 41.292">
  <g id="name" transform="translate(4.676 1.25)">
    <g id="Group_4" data-name="Group 4">
      <g id="Group_3" data-name="Group 3">
        <path id="Path_39" data-name="Path 39" d="M243.664,214.318c-.494.395-1.086.839-1.678,1.283a20.039,20.039,0,0,1-2.024,1.234,11.426,11.426,0,0,1-2.271.889,7.87,7.87,0,0,1-2.37.346,3.812,3.812,0,0,1-.74-.1,1.18,1.18,0,0,1-.642-.346,1.5,1.5,0,0,1-.444-.642,2.773,2.773,0,0,1-.148-.987c0-.444.049-1.629.1-3.456,0-.79.049-1.777.049-2.962.049-1.185.049-2.616.1-4.245.049-1.678.1-3.6.148-5.825s.148-4.739.2-7.6c-.839.1-1.629.2-2.419.3s-1.58.148-2.32.247l4.838-3.554a6.84,6.84,0,0,0,1.481.148c.543.049,1.037.049,1.53.049.74,0,1.481-.049,2.172-.1s1.382-.1,2.073-.2c.691-.049,1.333-.148,1.975-.2s1.333-.1,1.975-.1a14.267,14.267,0,0,1,3.209.395,8.56,8.56,0,0,1,2.814,1.234,6.394,6.394,0,0,1,2.024,2.123,5.993,5.993,0,0,1,.79,3.061,7.346,7.346,0,0,1-.543,2.666,12.383,12.383,0,0,1-1.432,2.616,15.88,15.88,0,0,1-2.123,2.369,15.786,15.786,0,0,1-5.233,3.258,7.522,7.522,0,0,1-2.616.543l-.543-.395a10.093,10.093,0,0,0,3.011-1.185,10.393,10.393,0,0,0,2.419-1.925,8.342,8.342,0,0,0,1.58-2.518,7.841,7.841,0,0,0,.543-3.061,5.718,5.718,0,0,0-.346-2.073,5.861,5.861,0,0,0-.938-1.629,6.527,6.527,0,0,0-1.382-1.234,7.008,7.008,0,0,0-1.728-.839,10.972,10.972,0,0,0-1.925-.494,13.292,13.292,0,0,0-1.975-.148h-1.086c-.346,0-.74.049-1.086.049l-.74,22.806a3.291,3.291,0,0,0,1.037.444,5.272,5.272,0,0,0,1.234.148,11.237,11.237,0,0,0,1.283-.1,6.125,6.125,0,0,0,1.086-.2A2.008,2.008,0,0,0,243.664,214.318Z" transform="translate(-229.2 -180.108)" fill="#1a5857" stroke="#000" stroke-miterlimit="10" stroke-width="2.5"/>
        <path id="Path_40" data-name="Path 40" d="M296.38,204.377c-1.234.889-2.32,1.58-3.159,2.123s-1.58.987-2.221,1.333a7.862,7.862,0,0,1-1.728.691,5.9,5.9,0,0,1-1.629.2,3.055,3.055,0,0,1-1.432-.346,3.1,3.1,0,0,1-1.234-1.283,8.679,8.679,0,0,1-.839-2.567,24.1,24.1,0,0,1-.3-4.2c0-1.678,0-3.455.049-5.331s.1-3.7.1-5.578c.049-1.876.1-3.7.1-5.479s.049-3.456.049-5.035a7.687,7.687,0,0,0-.691-3.554,2.289,2.289,0,0,0-2.123-1.284,6.743,6.743,0,0,0-.938.1,3.37,3.37,0,0,0-1.086.444c.494-.346.987-.691,1.53-1.086.543-.346,1.086-.691,1.629-.987a12.427,12.427,0,0,1,1.678-.74,5.237,5.237,0,0,1,1.678-.3,2.536,2.536,0,0,1,1.678.543,3.174,3.174,0,0,1,.889,1.333,6.316,6.316,0,0,1,.346,1.728c.049.642.049,1.185.049,1.728,0,.79-.049,1.777-.049,2.913s-.049,2.32-.049,3.653c-.049,1.283-.049,2.666-.1,4.048s-.049,2.764-.1,4.1-.049,2.616-.049,3.8-.049,2.271-.049,3.159a12.838,12.838,0,0,0,.247,3.209,6.534,6.534,0,0,0,.889,2.221,4.09,4.09,0,0,0,1.333,1.283,3.311,3.311,0,0,0,1.728.395A7.379,7.379,0,0,0,296.38,204.377Z" transform="translate(-254.568 -171.5)" fill="#1a5857" stroke="#000" stroke-miterlimit="10" stroke-width="2.5"/>
        <path id="Path_41" data-name="Path 41" d="M339.413,222.084a15.155,15.155,0,0,1-1.678,1.432,18.4,18.4,0,0,1-1.826,1.135,17.121,17.121,0,0,1-1.777.74,4.91,4.91,0,0,1-1.58.3,7.118,7.118,0,0,1-1.037,0,3.6,3.6,0,0,1-1.185-.346,2.8,2.8,0,0,1-.987-.889,2.9,2.9,0,0,1-.395-1.728V220.5a26.365,26.365,0,0,1-2.172,1.925,15.826,15.826,0,0,1-2.37,1.678,10.09,10.09,0,0,1-2.468,1.135,7.245,7.245,0,0,1-2.468.444,5.41,5.41,0,0,1-2.715-.691,6.179,6.179,0,0,1-1.975-1.777,7.153,7.153,0,0,1-1.185-2.468,10.257,10.257,0,0,1-.395-2.666,13.294,13.294,0,0,1,.148-1.975c.1-.642.247-1.234.395-1.826a11.8,11.8,0,0,1,.543-1.58,5.8,5.8,0,0,1,.642-1.135,9.688,9.688,0,0,1,1.58-1.629,15.742,15.742,0,0,1,2.073-1.481c.74-.444,1.58-.889,2.419-1.283a22.971,22.971,0,0,1,2.567-.987,18.3,18.3,0,0,1,2.468-.642,12.226,12.226,0,0,1,2.221-.247c.691,0,1.53.049,2.468.1a23.067,23.067,0,0,1,3.258.444c-.049,1.432-.1,2.715-.148,3.8s-.049,2.073-.1,2.962-.049,1.678-.049,2.37v2.073c0,.691,0,1.382-.049,2.024a6.639,6.639,0,0,0,.148,1.777,2.761,2.761,0,0,0,.74,1.283,2.412,2.412,0,0,0,1.728.494,5.57,5.57,0,0,0,1.481-.2A5.362,5.362,0,0,0,339.413,222.084Zm-10.465-13.477a16.279,16.279,0,0,0-2.419-.444,21.053,21.053,0,0,0-2.468-.1,9.914,9.914,0,0,0-1.234.049c-.395.049-.741.049-1.037.1s-.592.1-.839.148a1.138,1.138,0,0,0-.543.2,2.168,2.168,0,0,0-.79.839,12.094,12.094,0,0,0-.889,1.629,12.476,12.476,0,0,0-.691,2.172,10.241,10.241,0,0,0-.3,2.468,8.517,8.517,0,0,0,.346,2.468,7.677,7.677,0,0,0,1.037,2.221,5.679,5.679,0,0,0,1.678,1.58,4.507,4.507,0,0,0,2.32.592,5.878,5.878,0,0,0,2.172-.395,4.716,4.716,0,0,0,1.629-1.086,5.646,5.646,0,0,0,1.135-1.629,11.687,11.687,0,0,0,.74-1.975v-5.973C328.9,210.582,328.9,209.644,328.947,208.607Z" transform="translate(-271.734 -188.615)" fill="#1a5857" stroke="#000" stroke-miterlimit="10" stroke-width="2.5"/>
        <path id="Path_42" data-name="Path 42" d="M373.835,222.722l-4.492,3.258c.1-2.419.2-4.492.247-6.171.049-1.728.1-3.11.148-4.2.049-1.283.049-2.369.049-3.209a6.646,6.646,0,0,0-.642-3.554,2.362,2.362,0,0,0-2.172-1.283,3.687,3.687,0,0,0-.987.148c-.346.1-.691.247-1.086.395.494-.346.987-.691,1.53-1.086a18.71,18.71,0,0,1,1.678-.987,15.922,15.922,0,0,1,1.678-.74,5.237,5.237,0,0,1,1.678-.3,3.375,3.375,0,0,1,1.432.3,2.14,2.14,0,0,1,.987,1.086,6.075,6.075,0,0,1,.444,1.432,9.389,9.389,0,0,1,.148,1.728,11.428,11.428,0,0,1,2.172-1.876,14.219,14.219,0,0,1,2.468-1.481,12.754,12.754,0,0,1,2.616-.938,7.143,7.143,0,0,1,2.468-.148,9.743,9.743,0,0,1,1.777.494,5.154,5.154,0,0,1,1.678,1.086,5.4,5.4,0,0,1,1.234,1.925,8.509,8.509,0,0,1,.444,2.962c-.049,1.382-.1,2.715-.2,3.85q-.148,1.777-.148,3.11a7.662,7.662,0,0,0,.148,1.53,4.918,4.918,0,0,0,.444,1.284,2.091,2.091,0,0,0,.889.839,3.078,3.078,0,0,0,1.432.3,4.682,4.682,0,0,0,1.58-.3,6.911,6.911,0,0,0,1.678-.889c-.938.839-1.728,1.481-2.518,2.073a18.209,18.209,0,0,1-2.123,1.333,8.867,8.867,0,0,1-1.827.74,6.132,6.132,0,0,1-1.629.2,2.665,2.665,0,0,1-1.333-.3,1.937,1.937,0,0,1-.889-.889,5.425,5.425,0,0,1-.494-1.58,16.777,16.777,0,0,1-.1-2.37c.049-.839.1-1.728.148-2.715s.1-1.975.1-2.962a15.453,15.453,0,0,0-.247-2.863,4.522,4.522,0,0,0-.839-1.975,3.6,3.6,0,0,0-1.629-1.135,7.994,7.994,0,0,0-2.666-.395,4.23,4.23,0,0,0-2.024.444,4.7,4.7,0,0,0-1.382,1.234,6.888,6.888,0,0,0-.839,1.826c-.2.691-.346,1.432-.494,2.221a19.181,19.181,0,0,0-.2,2.419c-.049.839-.049,1.629-.1,2.369s-.049,1.481-.1,2.172A7.156,7.156,0,0,1,373.835,222.722Z" transform="translate(-297.912 -188.463)" fill="#1a5857" stroke="#000" stroke-miterlimit="10" stroke-width="2.5"/>
        <path id="Path_43" data-name="Path 43" d="M443.84,213.715c-.987.79-1.925,1.481-2.912,2.123a23,23,0,0,1-2.764,1.58,12.586,12.586,0,0,1-2.567.938,7.754,7.754,0,0,1-2.32.247,5.594,5.594,0,0,1-2.024-.543,4.481,4.481,0,0,1-1.58-1.333,6.73,6.73,0,0,1-1.037-2.32,11.82,11.82,0,0,1-.3-3.406c0-.691.049-1.58.1-2.518.049-.839.049-1.876.1-3.11s.049-2.666.1-4.344c-.247.049-.592.049-.987.1s-.79.1-1.234.2a8.463,8.463,0,0,0-1.382.395,8.783,8.783,0,0,0-1.432.592c.395-.247.74-.494,1.135-.74s.74-.494,1.037-.691c.346-.247.691-.494,1.037-.691a2.341,2.341,0,0,0,.889-.938,6.724,6.724,0,0,0,.642-1.728,12.069,12.069,0,0,0,.3-3.011q1.333-.666,2.221-1.185c.592-.346,1.086-.691,1.481-.938a6.979,6.979,0,0,0,1.037-.79l-.1,6.319a5.669,5.669,0,0,1,.938.049h1.629c1.086.049,2.123,0,3.061-.049a12.153,12.153,0,0,0,1.283-.1c.444-.049.839-.1,1.234-.148s.79-.148,1.135-.2a9.313,9.313,0,0,0,.889-.3,12.232,12.232,0,0,1-2.221,1.728,11.567,11.567,0,0,1-2.518,1.135,24.272,24.272,0,0,1-2.715.691,17.547,17.547,0,0,1-2.715.3c-.049,1.777-.049,3.554-.049,5.282v5.134a3.562,3.562,0,0,0,.395,1.58,3.869,3.869,0,0,0,1.086,1.283,6.708,6.708,0,0,0,1.678.889,7.08,7.08,0,0,0,2.123.346,10.168,10.168,0,0,0,2.567-.395A21.172,21.172,0,0,0,443.84,213.715Z" transform="translate(-327.635 -181.678)" fill="#1a5857" stroke="#000" stroke-miterlimit="10" stroke-width="2.5"/>
        <path id="Path_44" data-name="Path 44" d="M482.825,216.534a4.6,4.6,0,0,1-.691,2.419,8.643,8.643,0,0,1-1.777,2.073,13.151,13.151,0,0,1-2.518,1.678,15.931,15.931,0,0,1-2.863,1.185,21.207,21.207,0,0,1-2.814.691,10.307,10.307,0,0,1-2.369.148,9.186,9.186,0,0,1-1.876-.3,7.873,7.873,0,0,1-1.728-.592,3.418,3.418,0,0,1-1.086-.74.554.554,0,0,1-.049-.79,9.494,9.494,0,0,1,.74-.691c.247-.2.592-.494.938-.74s.79-.543,1.284-.839a20.278,20.278,0,0,1,1.826-.938.853.853,0,0,0-.148.938,1.72,1.72,0,0,0,.642.691,3.432,3.432,0,0,0,1.135.494,13.238,13.238,0,0,0,1.333.346c.444.1.839.148,1.185.2a4.883,4.883,0,0,0,.74.049,12.035,12.035,0,0,0,1.333-.049,4.168,4.168,0,0,0,1.185-.3,1.929,1.929,0,0,0,.839-.691,2.158,2.158,0,0,0,.346-1.234,2.418,2.418,0,0,0-.494-1.58,4.156,4.156,0,0,0-1.333-1.086,7.035,7.035,0,0,0-1.876-.691c-.691-.148-1.382-.346-2.073-.444s-1.333-.2-1.925-.3a8.668,8.668,0,0,1-1.481-.3,5.854,5.854,0,0,1-1.58-.642,4.659,4.659,0,0,1-1.037-.889,2.268,2.268,0,0,1-.543-1.086,4.481,4.481,0,0,1-.148-1.135,4.261,4.261,0,0,1,.691-2.32,7.249,7.249,0,0,1,1.777-1.925,14.979,14.979,0,0,1,2.468-1.53,21.97,21.97,0,0,1,2.814-1.086,20.564,20.564,0,0,1,2.764-.691,14.9,14.9,0,0,1,2.32-.247c.74,0,1.432.049,2.024.1.592.1,1.037.2,1.432.3a1.061,1.061,0,0,1,.691.444.629.629,0,0,1,0,.592,2.364,2.364,0,0,1-.543.74,7.873,7.873,0,0,1-.938.79,6.29,6.29,0,0,1-.938.642c-.3.2-.592.346-.938.543a7.266,7.266,0,0,1-1.086.494.963.963,0,0,0,.247-.642.835.835,0,0,0-.346-.494,2.952,2.952,0,0,0-.79-.395,5.621,5.621,0,0,0-1.135-.247c-.444-.049-.839-.1-1.284-.148a12.032,12.032,0,0,0-1.333-.049,11.161,11.161,0,0,0-1.284.049,3.844,3.844,0,0,0-1.135.247,2.581,2.581,0,0,0-.839.592,1.562,1.562,0,0,0-.3,1.135,3.913,3.913,0,0,0,.247,1.234,3.125,3.125,0,0,0,.79,1.185,5.213,5.213,0,0,0,1.284.987,5.79,5.79,0,0,0,1.777.642,16.142,16.142,0,0,0,1.728.247c.642.049,1.284.1,1.925.2s1.234.2,1.876.3a5.051,5.051,0,0,1,1.58.642,3.262,3.262,0,0,1,1.086,1.086A3.659,3.659,0,0,1,482.825,216.534Z" transform="translate(-348.553 -187.754)" fill="#1a5857" stroke="#000" stroke-miterlimit="10" stroke-width="2.5"/>
        <path id="Path_45" data-name="Path 45" d="M516.853,238.977c-.494.346-.987.691-1.432,1.037a15.287,15.287,0,0,1-1.283.889c-.395.247-.79.444-1.086.642a2.117,2.117,0,0,1-.74.247,3.9,3.9,0,0,1-.642-.247c-.247-.148-.543-.346-.938-.592a11.058,11.058,0,0,1-1.432-1.185L513,237.2a16.933,16.933,0,0,0,1.58,1.135,4.286,4.286,0,0,0,1.234.543A7.369,7.369,0,0,0,516.853,238.977Z" transform="translate(-371.03 -204.767)" fill="#1a5857" stroke="#000" stroke-miterlimit="10" stroke-width="2.5"/>
        <path id="Path_46" data-name="Path 46" d="M559.813,222.084a15.155,15.155,0,0,1-1.678,1.432,18.4,18.4,0,0,1-1.826,1.135,10.5,10.5,0,0,1-1.777.74,4.682,4.682,0,0,1-1.58.3,7.118,7.118,0,0,1-1.037,0,3.6,3.6,0,0,1-1.185-.346,2.8,2.8,0,0,1-.987-.889,2.9,2.9,0,0,1-.395-1.728V220.5a26.355,26.355,0,0,1-2.172,1.925,15.83,15.83,0,0,1-2.37,1.678,10.089,10.089,0,0,1-2.468,1.135,7.245,7.245,0,0,1-2.468.444,5.41,5.41,0,0,1-2.715-.691,6.178,6.178,0,0,1-1.975-1.777,7.155,7.155,0,0,1-1.185-2.468,10.258,10.258,0,0,1-.395-2.666,13.29,13.29,0,0,1,.148-1.975c.1-.642.247-1.234.395-1.826a11.821,11.821,0,0,1,.543-1.58,7.758,7.758,0,0,1,.642-1.135,9.693,9.693,0,0,1,1.58-1.629,15.734,15.734,0,0,1,2.073-1.481c.74-.444,1.58-.889,2.419-1.283a22.977,22.977,0,0,1,2.567-.987,16.579,16.579,0,0,1,2.468-.642,12.225,12.225,0,0,1,2.221-.247c.691,0,1.53.049,2.468.1a23.066,23.066,0,0,1,3.258.444c-.049,1.432-.1,2.715-.148,3.8s-.049,2.073-.1,2.962-.049,1.678-.049,2.37v2.073c0,.691,0,1.382-.049,2.024a6.638,6.638,0,0,0,.148,1.777,2.6,2.6,0,0,0,.74,1.283,2.412,2.412,0,0,0,1.728.494,5.57,5.57,0,0,0,1.481-.2A4.851,4.851,0,0,0,559.813,222.084Zm-10.465-13.477a16.277,16.277,0,0,0-2.419-.444,21.054,21.054,0,0,0-2.468-.1,9.915,9.915,0,0,0-1.234.049c-.395.049-.74.049-1.037.1s-.592.1-.839.148a1.138,1.138,0,0,0-.543.2,2.168,2.168,0,0,0-.79.839,12.091,12.091,0,0,0-.889,1.629,12.468,12.468,0,0,0-.691,2.172,10.242,10.242,0,0,0-.3,2.468,8.518,8.518,0,0,0,.346,2.468,7.677,7.677,0,0,0,1.037,2.221,5.679,5.679,0,0,0,1.678,1.58,4.507,4.507,0,0,0,2.32.592,5.878,5.878,0,0,0,2.172-.395,4.716,4.716,0,0,0,1.629-1.086,5.648,5.648,0,0,0,1.135-1.629,11.684,11.684,0,0,0,.74-1.975v-5.973A17.623,17.623,0,0,0,549.347,208.607Z" transform="translate(-383.334 -188.615)" fill="#1a5857" stroke="#000" stroke-miterlimit="10" stroke-width="2.5"/>
        <path id="Path_47" data-name="Path 47" d="M597.153,238.977c-.494.346-.987.691-1.432,1.037a15.287,15.287,0,0,1-1.283.889c-.395.247-.79.444-1.086.642a2.116,2.116,0,0,1-.74.247,3.9,3.9,0,0,1-.642-.247c-.247-.148-.543-.346-.938-.592a11.058,11.058,0,0,1-1.432-1.185l3.7-2.567a16.95,16.95,0,0,0,1.58,1.135,4.287,4.287,0,0,0,1.234.543A9.049,9.049,0,0,0,597.153,238.977Z" transform="translate(-411.69 -204.767)" fill="#1a5857" stroke="#000" stroke-miterlimit="10" stroke-width="2.5"/>
        <path id="Path_48" data-name="Path 48" d="M624.98,204.377c-1.234.889-2.32,1.58-3.159,2.123s-1.58.987-2.221,1.333a7.861,7.861,0,0,1-1.728.691,5.67,5.67,0,0,1-1.629.2,3.056,3.056,0,0,1-1.432-.346,3.1,3.1,0,0,1-1.234-1.283,8.678,8.678,0,0,1-.839-2.567,24.107,24.107,0,0,1-.3-4.2c0-1.678,0-3.455.049-5.331s.1-3.7.1-5.578.1-3.7.1-5.479.049-3.456.049-5.035a7.687,7.687,0,0,0-.691-3.554,2.289,2.289,0,0,0-2.123-1.284,6.743,6.743,0,0,0-.938.1,3.369,3.369,0,0,0-1.086.444c.494-.346.987-.691,1.53-1.086.543-.346,1.086-.691,1.629-.987a12.433,12.433,0,0,1,1.678-.74,5.236,5.236,0,0,1,1.678-.3,2.536,2.536,0,0,1,1.678.543,3.174,3.174,0,0,1,.889,1.333,6.317,6.317,0,0,1,.346,1.728c.049.642.049,1.185.049,1.728,0,.79-.049,1.777-.049,2.913s-.049,2.32-.049,3.653c-.049,1.283-.049,2.666-.1,4.048s-.049,2.764-.1,4.1-.049,2.616-.049,3.8-.049,2.271-.049,3.159a12.843,12.843,0,0,0,.247,3.209,6.534,6.534,0,0,0,.889,2.221,4.091,4.091,0,0,0,1.333,1.283,3.312,3.312,0,0,0,1.728.395A7.378,7.378,0,0,0,624.98,204.377Z" transform="translate(-420.956 -171.5)" fill="#1a5857" stroke="#000" stroke-miterlimit="10" stroke-width="2.5"/>
        <path id="Path_49" data-name="Path 49" d="M664.951,214.139a8.925,8.925,0,0,1-.444,2.863,10.342,10.342,0,0,1-1.037,2.221,7.027,7.027,0,0,1-1.234,1.58c-.444.395-.74.74-.987.938-.74.543-1.481,1.037-2.221,1.53a18.346,18.346,0,0,1-2.37,1.333,14.928,14.928,0,0,1-2.468.938,9.289,9.289,0,0,1-2.616.346,13.6,13.6,0,0,1-3.8-.494,9.889,9.889,0,0,1-3.159-1.53,7.149,7.149,0,0,1-2.123-2.567,8.243,8.243,0,0,1-.79-3.6,8.961,8.961,0,0,1,.642-3.456,12.437,12.437,0,0,1,1.678-2.962,12.747,12.747,0,0,1,2.468-2.419,15.818,15.818,0,0,1,3.011-1.826,16.165,16.165,0,0,1,6.566-1.53,9.544,9.544,0,0,1,3.6.642,8.4,8.4,0,0,1,2.814,1.826,8.489,8.489,0,0,1,1.827,2.715A9.99,9.99,0,0,1,664.951,214.139Zm-12.983-6.417a3.862,3.862,0,0,0-1.728.346,5.259,5.259,0,0,0-1.382.938,5.957,5.957,0,0,0-1.037,1.382,11.9,11.9,0,0,0-.741,1.629,11.115,11.115,0,0,0-.444,1.728,9.975,9.975,0,0,0-.148,1.629,7.838,7.838,0,0,0,.642,3.258,8.691,8.691,0,0,0,1.777,2.666,8.477,8.477,0,0,0,2.616,1.777,7.767,7.767,0,0,0,3.209.642,5.679,5.679,0,0,0,2.024-.395,4.287,4.287,0,0,0,1.728-1.283,6.615,6.615,0,0,0,1.234-2.271,11.061,11.061,0,0,0,.444-3.357,8.575,8.575,0,0,0-.642-3.307,8.749,8.749,0,0,0-1.728-2.764,8.569,8.569,0,0,0-2.616-1.925A7.228,7.228,0,0,0,651.968,207.721Z" transform="translate(-438.071 -188.716)" fill="#1a5857" stroke="#000" stroke-miterlimit="10" stroke-width="2.5"/>
        <path id="Path_50" data-name="Path 50" d="M712.039,213.715c-.987.79-1.925,1.481-2.912,2.123a27.59,27.59,0,0,1-2.764,1.58,12.588,12.588,0,0,1-2.567.938,7.754,7.754,0,0,1-2.32.247,5.593,5.593,0,0,1-2.024-.543,4.089,4.089,0,0,1-1.58-1.333,6.727,6.727,0,0,1-1.037-2.32,11.82,11.82,0,0,1-.3-3.406c0-.691.049-1.58.1-2.518.049-.839.049-1.876.1-3.11s.049-2.666.1-4.344c-.247.049-.592.049-.987.1s-.79.1-1.234.2a8.466,8.466,0,0,0-1.382.395c-.494.2-.938.346-1.432.592.395-.247.74-.494,1.135-.74s.74-.494,1.037-.691c.346-.247.691-.494,1.037-.691a2.34,2.34,0,0,0,.888-.938,6.725,6.725,0,0,0,.642-1.728,12.072,12.072,0,0,0,.3-3.011q1.333-.666,2.221-1.185c.592-.346,1.086-.691,1.481-.938a6.97,6.97,0,0,0,1.037-.79l-.1,6.319a5.668,5.668,0,0,1,.938.049,4.755,4.755,0,0,0,.839,0h.79c1.086.049,2.123,0,3.061-.049a12.15,12.15,0,0,0,1.283-.1c.444-.049.839-.1,1.234-.148s.79-.148,1.135-.2a3.744,3.744,0,0,0,.889-.3,12.236,12.236,0,0,1-2.221,1.728,14.512,14.512,0,0,1-2.518,1.135,24.271,24.271,0,0,1-2.715.691,26.8,26.8,0,0,1-2.715.3c-.049,1.777-.049,3.554-.049,5.282v5.134a3.561,3.561,0,0,0,.4,1.58,3.87,3.87,0,0,0,1.086,1.283,7.7,7.7,0,0,0,1.678.889,7.08,7.08,0,0,0,2.123.346,10.166,10.166,0,0,0,2.567-.395A10.569,10.569,0,0,0,712.039,213.715Z" transform="translate(-463.439 -181.678)" fill="#1a5857" stroke="#000" stroke-miterlimit="10" stroke-width="2.5"/>
      </g>
    </g>
  </g>
</svg>
